# xmcd
#
# Track frame offsets: 
#        150
#        14160
#        29382
#        42360
#        51590
#        61427
#        72917
#        83112
#        95247
#        104987
#        113200
#        127142
#        142585
#        150550
#        165205
#        178527
#        188332
#        197345
#        207387
#        218427
#        236412
#        246052
#        256637
#        267055
#
# Disc length: 3711 seconds
#
# Revision: 4
# Processed by: cddbd v1.5.2PL0 Copyright (c) Steve Scherf et al.
# Submitted via: ExactAudioCopy v0.95b4
#
DISCID=4d0e7d18
DTITLE=Merle Travis - The Merle Travis Story: 24 Greatest Hits
DYEAR=1989
DGENRE=Country Boogie
TTITLE0=John Henry
TTITLE1=Start Even
TTITLE2=Smoke! Smoke! Smoke! (That Cigarette)
TTITLE3=Lazy River
TTITLE4=So Round, So Firm, So Fully Packed
TTITLE5=Sweet Temptation
TTITLE6=Divorce Me C.O.D.
TTITLE7=I Am a Pilgrim
TTITLE8=Cincinnati Lou
TTITLE9=Dance of the Goldenrod
TTITLE10=Fat Gal
TTITLE11=Re-Enlistment Blues
TTITLE12=Nine Pound Hammer
TTITLE13=Kentucky Means Paradise
TTITLE14=Sixteen Tons
TTITLE15=Steel Guitar Rag
TTITLE16=Goodbye My Bluebell
TTITLE17=I Like My Chicken Fryin' Size
TTITLE18=When My Baby Double Talks to Me
TTITLE19=Dark as a Dungeon
TTITLE20=I'm a Natural Born Gamblin' Man
TTITLE21=Bayou Baby
TTITLE22=I'll See You in My Dreams
TTITLE23=That's All
EXTD=Merle Robert Travis (1917-11-29/1983-10-20): guitars, vocals\nAle
EXTD=x Brashear: trumpet\nJohnny Gimble: fiddle, electric mandolin\nHe
EXTD=rb Remington: steel guitar\nCurly Hollingsworth: piano\nBilly Lin
EXTD=neman: bass\nBuddy Harman: drums\nRecorded at John Wagner Studios
EXTD=, Albuquerque US-NM, 1979-05-30 and 1979-06-01.\nProduced by Merle 
EXTD=Travis and John Wagner.\nCD: CMH Records CD-9018 (1994-05-02), UPC 
EXTD=027297901827.
EXTT0=(trad.)
EXTT1=(Merle Travis)
EXTT2=(Merle Travis/Tex Williams)
EXTT3=(Hoagy Carmichael/Sidney Arodin)
EXTT4=(Merle Travis/Cliffie Stone/Eddie Kirk)
EXTT5=(Merle Travis/Cliffie Stone)
EXTT6=(Merle Travis/Cliffie Stone)
EXTT7=(trad.)
EXTT8=(Merle Travis/Shug Fisher)
EXTT9=(Merle Travis)
EXTT10=(Merle Travis)
EXTT11=(Fred M. Karger/R. Wells/James Jones)
EXTT12=(Merle Travis)
EXTT13=(Merle Travis)
EXTT14=(Merle Travis)
EXTT15=(Leon McAuliffe/Merle Travis/Cliffie Stone)
EXTT16=(Martin Christian)
EXTT17=(Merle Travis)
EXTT18=(Merle Travis)
EXTT19=(Merle Travis)
EXTT20=(Merle Travis/Tex Atchison)
EXTT21=(Merle Travis)
EXTT22=(Isham Jones/Gus Kahn)
EXTT23=(Merle Travis)
PLAYORDER=
